<?xml version="1.0" encoding="UTF-8"?>
<svg width="3000" height="2645" xmlns="http://www.w3.org/2000/svg" viewBox="0 0 660 604" role="img" aria-label="Yield Bud Empire" class="ybe-logo  "><title>Yield Bud Empire</title><defs><radialGradient id="r5disc" cx="50%" cy="42%" r="70%"><stop offset="0" stop-color="#5a48c4"/><stop offset=".55" stop-color="#2c2070"/><stop offset="1" stop-color="#0a0716"/></radialGradient><linearGradient id="r5leaf" x1="0" y1="1" x2=".55" y2="0"><stop offset="0" stop-color="#3f9a0c"/><stop offset=".5" stop-color="#8ee02a"/><stop offset="1" stop-color="#e2fba8"/></linearGradient><linearGradient id="r5gold" x1="0" y1="0" x2="0" y2="1"><stop offset="0" stop-color="#fff5b8"/><stop offset=".45" stop-color="#fcd34d"/><stop offset="1" stop-color="#e08a0b"/></linearGradient><linearGradient id="r5coin" x1="0" y1="0" x2="1" y2="0"><stop offset="0" stop-color="#b45309"/><stop offset=".5" stop-color="#f5b400"/><stop offset="1" stop-color="#92400e"/></linearGradient><linearGradient id="r5wl" x1="0" y1="0" x2="0" y2="1"><stop offset="0" stop-color="#f0ffb8"/><stop offset=".5" stop-color="#a3e635"/><stop offset="1" stop-color="#4d9a12"/></linearGradient><linearGradient id="r5wg" x1="0" y1="0" x2="0" y2="1"><stop offset="0" stop-color="#fff5b8"/><stop offset=".5" stop-color="#fcd34d"/><stop offset="1" stop-color="#e08a0b"/></linearGradient><radialGradient id="r5glow" cx="50%" cy="50%" r="50%"><stop offset=".45" stop-color="#7c5cf0" stop-opacity=".55"/><stop offset=".75" stop-color="#fcd34d" stop-opacity=".16"/><stop offset="1" stop-color="#fcd34d" stop-opacity="0"/></radialGradient><linearGradient id="r5shine" x1="0" y1="0" x2="1" y2="0"><stop offset="0" stop-color="#fff" stop-opacity="0"/><stop offset=".5" stop-color="#fff" stop-opacity=".9"/><stop offset="1" stop-color="#fff" stop-opacity="0"/></linearGradient><clipPath id="r5disc-clip"><circle cx="200" cy="200" r="146"/></clipPath><clipPath id="r5crown-clip"><path d="M152 138 L154 98 L165 121 L177 107 L188 124 L200 84 L212 124 L223 107 L235 121 L246 98 L248 138Z"/></clipPath></defs><g transform="translate(70 -63) scale(1.3)"><g><g clip-path="url(#r5disc-clip)" mask="url(#r5rays-mask)"><g class="ybe-rays"><g transform="translate(200 200)" fill="none" stroke="#1b1636" stroke-width="2.4" stroke-linejoin="round"><path d="M0 0 L150 -11 L150 11Z" transform="rotate(0)"/><path d="M0 0 L118 -7 L118 7Z" transform="rotate(22.5)"/><path d="M0 0 L150 -11 L150 11Z" transform="rotate(45)"/><path d="M0 0 L118 -7 L118 7Z" transform="rotate(67.5)"/><path d="M0 0 L150 -11 L150 11Z" transform="rotate(90)"/><path d="M0 0 L118 -7 L118 7Z" transform="rotate(112.5)"/><path d="M0 0 L150 -11 L150 11Z" transform="rotate(135)"/><path d="M0 0 L118 -7 L118 7Z" transform="rotate(157.5)"/><path d="M0 0 L150 -11 L150 11Z" transform="rotate(180)"/><path d="M0 0 L118 -7 L118 7Z" transform="rotate(202.5)"/><path d="M0 0 L150 -11 L150 11Z" transform="rotate(225)"/><path d="M0 0 L118 -7 L118 7Z" transform="rotate(247.5)"/><path d="M0 0 L150 -11 L150 11Z" transform="rotate(270)"/><path d="M0 0 L118 -7 L118 7Z" transform="rotate(292.5)"/><path d="M0 0 L150 -11 L150 11Z" transform="rotate(315)"/><path d="M0 0 L118 -7 L118 7Z" transform="rotate(337.5)"/></g></g></g><g mask="url(#r5coin-mask)"><g><path d="M166 326 v8 a34 9 0 0 0 68 0 v-8Z" fill="#1b1636" stroke="#1b1636" stroke-width="6" stroke-linejoin="round"/><ellipse cx="200" cy="326" rx="34" ry="9" fill="#1b1636" stroke="#1b1636" stroke-width="6"/></g><g><path d="M166 316 v8 a34 9 0 0 0 68 0 v-8Z" fill="#1b1636" stroke="#1b1636" stroke-width="6" stroke-linejoin="round"/><ellipse cx="200" cy="316" rx="34" ry="9" fill="#1b1636" stroke="#1b1636" stroke-width="6"/></g><g><path d="M166 306 v8 a34 9 0 0 0 68 0 v-8Z" fill="#1b1636" stroke="#1b1636" stroke-width="6" stroke-linejoin="round"/><ellipse cx="200" cy="306" rx="34" ry="9" fill="#1b1636" stroke="#1b1636" stroke-width="6"/></g></g><g class="ybe-leaf" mask="url(#r5leaf-mask)"><path d="M200 272 L200 308" stroke="#1b1636" stroke-width="16" stroke-linecap="round"/><path d="M200 272 L200 308" stroke="#1b1636" stroke-width="7" stroke-linecap="round"/><g transform="translate(200 270) rotate(-80)"><g class="ybe-lf" style="--d: 0s;"><path d="M0 0L2.9 -3.1L7.0 -9.2L5.5 -10.9L9.2 -17.0L6.3 -18.7L9.4 -24.8L5.9 -26.5L8.1 -32.6L4.8 -34.3L5.9 -40.4L3.0 -42.1L2.9 -48.2L0 -52L-2.9 -48.2L-3.0 -42.1L-5.9 -40.4L-4.8 -34.3L-8.1 -32.6L-5.9 -26.5L-9.4 -24.8L-6.3 -18.7L-9.2 -17.0L-5.5 -10.9L-7.0 -9.2L-2.9 -3.1Z" fill="#1b1636" stroke="#1b1636" stroke-width="8.5" stroke-linejoin="round"/></g></g><g transform="translate(200 270) rotate(80)"><g class="ybe-lf" style="--d: -0.55s;"><path d="M0 0L2.9 -3.1L7.0 -9.2L5.5 -10.9L9.2 -17.0L6.3 -18.7L9.4 -24.8L5.9 -26.5L8.1 -32.6L4.8 -34.3L5.9 -40.4L3.0 -42.1L2.9 -48.2L0 -52L-2.9 -48.2L-3.0 -42.1L-5.9 -40.4L-4.8 -34.3L-8.1 -32.6L-5.9 -26.5L-9.4 -24.8L-6.3 -18.7L-9.2 -17.0L-5.5 -10.9L-7.0 -9.2L-2.9 -3.1Z" fill="#1b1636" stroke="#1b1636" stroke-width="8.5" stroke-linejoin="round"/></g></g><g transform="translate(200 270) rotate(-52)"><g class="ybe-lf" style="--d: -1.1s;"><path d="M0 0L3.8 -4.6L9.2 -13.5L7.2 -16.0L12.1 -24.9L8.2 -27.4L12.3 -36.3L7.8 -38.8L10.7 -47.7L6.3 -50.2L7.7 -59.1L4.0 -61.6L3.8 -70.5L0 -76L-3.8 -70.5L-4.0 -61.6L-7.7 -59.1L-6.3 -50.2L-10.7 -47.7L-7.8 -38.8L-12.3 -36.3L-8.2 -27.4L-12.1 -24.9L-7.2 -16.0L-9.2 -13.5L-3.8 -4.6Z" fill="#1b1636" stroke="#1b1636" stroke-width="8.5" stroke-linejoin="round"/></g></g><g transform="translate(200 270) rotate(52)"><g class="ybe-lf" style="--d: -1.6500000000000001s;"><path d="M0 0L3.8 -4.6L9.2 -13.5L7.2 -16.0L12.1 -24.9L8.2 -27.4L12.3 -36.3L7.8 -38.8L10.7 -47.7L6.3 -50.2L7.7 -59.1L4.0 -61.6L3.8 -70.5L0 -76L-3.8 -70.5L-4.0 -61.6L-7.7 -59.1L-6.3 -50.2L-10.7 -47.7L-7.8 -38.8L-12.3 -36.3L-8.2 -27.4L-12.1 -24.9L-7.2 -16.0L-9.2 -13.5L-3.8 -4.6Z" fill="#1b1636" stroke="#1b1636" stroke-width="8.5" stroke-linejoin="round"/></g></g><g transform="translate(200 270) rotate(-26)"><g class="ybe-lf" style="--d: 0s;"><path d="M0 0L4.4 -5.6L10.7 -16.6L8.4 -19.7L14.0 -30.7L9.6 -33.8L14.3 -44.8L9.0 -47.9L12.4 -58.9L7.3 -62.0L9.0 -73.0L4.7 -76.1L4.4 -87.1L0 -94L-4.4 -87.1L-4.7 -76.1L-9.0 -73.0L-7.3 -62.0L-12.4 -58.9L-9.0 -47.9L-14.3 -44.8L-9.6 -33.8L-14.0 -30.7L-8.4 -19.7L-10.7 -16.6L-4.4 -5.6Z" fill="#1b1636" stroke="#1b1636" stroke-width="8.5" stroke-linejoin="round"/></g></g><g transform="translate(200 270) rotate(26)"><g class="ybe-lf" style="--d: -0.55s;"><path d="M0 0L4.4 -5.6L10.7 -16.6L8.4 -19.7L14.0 -30.7L9.6 -33.8L14.3 -44.8L9.0 -47.9L12.4 -58.9L7.3 -62.0L9.0 -73.0L4.7 -76.1L4.4 -87.1L0 -94L-4.4 -87.1L-4.7 -76.1L-9.0 -73.0L-7.3 -62.0L-12.4 -58.9L-9.0 -47.9L-14.3 -44.8L-9.6 -33.8L-14.0 -30.7L-8.4 -19.7L-10.7 -16.6L-4.4 -5.6Z" fill="#1b1636" stroke="#1b1636" stroke-width="8.5" stroke-linejoin="round"/></g></g><g transform="translate(200 270) rotate(0)"><g class="ybe-lf" style="--d: -1.1s;"><path d="M0 0L4.9 -6.2L11.8 -18.4L9.2 -21.8L15.5 -34.0L10.5 -37.4L15.8 -49.6L10.0 -53.0L13.7 -65.2L8.0 -68.6L9.9 -80.8L5.1 -84.2L4.8 -96.4L0 -104L-4.8 -96.4L-5.1 -84.2L-9.9 -80.8L-8.0 -68.6L-13.7 -65.2L-10.0 -53.0L-15.8 -49.6L-10.5 -37.4L-15.5 -34.0L-9.2 -21.8L-11.8 -18.4L-4.9 -6.2Z" fill="#1b1636" stroke="#1b1636" stroke-width="8.5" stroke-linejoin="round"/></g></g></g><g class="ybe-crown" mask="url(#r5crown-mask)"><path d="M152 138 L154 98 L165 121 L177 107 L188 124 L200 84 L212 124 L223 107 L235 121 L246 98 L248 138Z" fill="#1b1636" stroke="#1b1636" stroke-width="7" stroke-linejoin="round"/><rect x="150" y="134" width="100" rx="5" fill="#1b1636" stroke="#1b1636" stroke-width="7" stroke-linejoin="round"/><circle cx="154" cy="90" r="5.6" fill="#1b1636" stroke="none" stroke-width="3"/><circle cx="177" cy="99" r="4.6" fill="#1b1636" stroke="none" stroke-width="3"/><circle cx="200" cy="76" r="6.4" fill="#1b1636" stroke="none" stroke-width="3"/><circle cx="223" cy="99" r="4.6" fill="#1b1636" stroke="none" stroke-width="3"/><circle cx="246" cy="90" r="5.6" fill="#1b1636" stroke="none" stroke-width="3"/></g><g transform="translate(98 152) scale(0.95)"><path class="ybe-spark" d="M0 -8 Q1.6 -1.6 8 0 Q1.6 1.6 0 8 Q-1.6 1.6 -8 0 Q-1.6 -1.6 0 -8Z" fill="#1b1636" stroke="none" stroke-width="1.4" style="animation-delay: 0s;"/></g><g transform="translate(304 128) scale(1.15)"><path class="ybe-spark" d="M0 -8 Q1.6 -1.6 8 0 Q1.6 1.6 0 8 Q-1.6 1.6 -8 0 Q-1.6 -1.6 0 -8Z" fill="#1b1636" stroke="none" stroke-width="1.4" style="animation-delay: 0.7s;"/></g><g transform="translate(112 292) scale(0.75)"><path class="ybe-spark" d="M0 -8 Q1.6 -1.6 8 0 Q1.6 1.6 0 8 Q-1.6 1.6 -8 0 Q-1.6 -1.6 0 -8Z" fill="#1b1636" stroke="none" stroke-width="1.4" style="animation-delay: 1.4s;"/></g><g transform="translate(292 286) scale(0.95)"><path class="ybe-spark" d="M0 -8 Q1.6 -1.6 8 0 Q1.6 1.6 0 8 Q-1.6 1.6 -8 0 Q-1.6 -1.6 0 -8Z" fill="#1b1636" stroke="none" stroke-width="1.4" style="animation-delay: 0.35s;"/></g><g transform="translate(206 56) scale(0.65)"><path class="ybe-spark" d="M0 -8 Q1.6 -1.6 8 0 Q1.6 1.6 0 8 Q-1.6 1.6 -8 0 Q-1.6 -1.6 0 -8Z" fill="#1b1636" stroke="none" stroke-width="1.4" style="animation-delay: 1.9s;"/></g><defs><mask id="r5rays-mask" maskUnits="userSpaceOnUse" x="0" y="0" width="400" height="400"><rect width="400" height="400" fill="#fff"/><g fill="#000" stroke="#000" stroke-width="22" stroke-linejoin="round" stroke-linecap="round"><path d="M0 0L2.9 -3.1L7.0 -9.2L5.5 -10.9L9.2 -17.0L6.3 -18.7L9.4 -24.8L5.9 -26.5L8.1 -32.6L4.8 -34.3L5.9 -40.4L3.0 -42.1L2.9 -48.2L0 -52L-2.9 -48.2L-3.0 -42.1L-5.9 -40.4L-4.8 -34.3L-8.1 -32.6L-5.9 -26.5L-9.4 -24.8L-6.3 -18.7L-9.2 -17.0L-5.5 -10.9L-7.0 -9.2L-2.9 -3.1Z" transform="translate(200 270) rotate(-80)"/><path d="M0 0L2.9 -3.1L7.0 -9.2L5.5 -10.9L9.2 -17.0L6.3 -18.7L9.4 -24.8L5.9 -26.5L8.1 -32.6L4.8 -34.3L5.9 -40.4L3.0 -42.1L2.9 -48.2L0 -52L-2.9 -48.2L-3.0 -42.1L-5.9 -40.4L-4.8 -34.3L-8.1 -32.6L-5.9 -26.5L-9.4 -24.8L-6.3 -18.7L-9.2 -17.0L-5.5 -10.9L-7.0 -9.2L-2.9 -3.1Z" transform="translate(200 270) rotate(80)"/><path d="M0 0L3.8 -4.6L9.2 -13.5L7.2 -16.0L12.1 -24.9L8.2 -27.4L12.3 -36.3L7.8 -38.8L10.7 -47.7L6.3 -50.2L7.7 -59.1L4.0 -61.6L3.8 -70.5L0 -76L-3.8 -70.5L-4.0 -61.6L-7.7 -59.1L-6.3 -50.2L-10.7 -47.7L-7.8 -38.8L-12.3 -36.3L-8.2 -27.4L-12.1 -24.9L-7.2 -16.0L-9.2 -13.5L-3.8 -4.6Z" transform="translate(200 270) rotate(-52)"/><path d="M0 0L3.8 -4.6L9.2 -13.5L7.2 -16.0L12.1 -24.9L8.2 -27.4L12.3 -36.3L7.8 -38.8L10.7 -47.7L6.3 -50.2L7.7 -59.1L4.0 -61.6L3.8 -70.5L0 -76L-3.8 -70.5L-4.0 -61.6L-7.7 -59.1L-6.3 -50.2L-10.7 -47.7L-7.8 -38.8L-12.3 -36.3L-8.2 -27.4L-12.1 -24.9L-7.2 -16.0L-9.2 -13.5L-3.8 -4.6Z" transform="translate(200 270) rotate(52)"/><path d="M0 0L4.4 -5.6L10.7 -16.6L8.4 -19.7L14.0 -30.7L9.6 -33.8L14.3 -44.8L9.0 -47.9L12.4 -58.9L7.3 -62.0L9.0 -73.0L4.7 -76.1L4.4 -87.1L0 -94L-4.4 -87.1L-4.7 -76.1L-9.0 -73.0L-7.3 -62.0L-12.4 -58.9L-9.0 -47.9L-14.3 -44.8L-9.6 -33.8L-14.0 -30.7L-8.4 -19.7L-10.7 -16.6L-4.4 -5.6Z" transform="translate(200 270) rotate(-26)"/><path d="M0 0L4.4 -5.6L10.7 -16.6L8.4 -19.7L14.0 -30.7L9.6 -33.8L14.3 -44.8L9.0 -47.9L12.4 -58.9L7.3 -62.0L9.0 -73.0L4.7 -76.1L4.4 -87.1L0 -94L-4.4 -87.1L-4.7 -76.1L-9.0 -73.0L-7.3 -62.0L-12.4 -58.9L-9.0 -47.9L-14.3 -44.8L-9.6 -33.8L-14.0 -30.7L-8.4 -19.7L-10.7 -16.6L-4.4 -5.6Z" transform="translate(200 270) rotate(26)"/><path d="M0 0L4.9 -6.2L11.8 -18.4L9.2 -21.8L15.5 -34.0L10.5 -37.4L15.8 -49.6L10.0 -53.0L13.7 -65.2L8.0 -68.6L9.9 -80.8L5.1 -84.2L4.8 -96.4L0 -104L-4.8 -96.4L-5.1 -84.2L-9.9 -80.8L-8.0 -68.6L-13.7 -65.2L-10.0 -53.0L-15.8 -49.6L-10.5 -37.4L-15.5 -34.0L-9.2 -21.8L-11.8 -18.4L-4.9 -6.2Z" transform="translate(200 270) rotate(0)"/><path d="M152 138 L154 98 L165 121 L177 107 L188 124 L200 84 L212 124 L223 107 L235 121 L246 98 L248 138Z"/><rect x="150" y="134" width="100" height="15" rx="5"/><path d="M200 272 L200 308" stroke-width="30"/><rect x="164" y="300" width="72" height="34" rx="12"/></g></mask><mask id="r5leaf-mask" maskUnits="userSpaceOnUse" x="0" y="0" width="400" height="400"><rect width="400" height="400" fill="#fff"/><g transform="translate(200 270) rotate(-80)" stroke="#000" stroke-width="3" stroke-linecap="round" fill="none"><path d="M0 -8 L0 -44.72"/><path d="M0 -16.64 L5.7 -21.840000000000003 M0 -16.64 L-5.7 -21.840000000000003"/><path d="M0 -27.04 L5.7 -32.24 M0 -27.04 L-5.7 -32.24"/><path d="M0 -36.4 L5.7 -41.599999999999994 M0 -36.4 L-5.7 -41.599999999999994"/></g><g transform="translate(200 270) rotate(80)" stroke="#000" stroke-width="3" stroke-linecap="round" fill="none"><path d="M0 -8 L0 -44.72"/><path d="M0 -16.64 L5.7 -21.840000000000003 M0 -16.64 L-5.7 -21.840000000000003"/><path d="M0 -27.04 L5.7 -32.24 M0 -27.04 L-5.7 -32.24"/><path d="M0 -36.4 L5.7 -41.599999999999994 M0 -36.4 L-5.7 -41.599999999999994"/></g><g transform="translate(200 270) rotate(-52)" stroke="#000" stroke-width="3" stroke-linecap="round" fill="none"><path d="M0 -8 L0 -65.36"/><path d="M0 -24.32 L7.5 -31.92 M0 -24.32 L-7.5 -31.92"/><path d="M0 -39.52 L7.5 -47.12 M0 -39.52 L-7.5 -47.12"/><path d="M0 -53.199999999999996 L7.5 -60.8 M0 -53.199999999999996 L-7.5 -60.8"/></g><g transform="translate(200 270) rotate(52)" stroke="#000" stroke-width="3" stroke-linecap="round" fill="none"><path d="M0 -8 L0 -65.36"/><path d="M0 -24.32 L7.5 -31.92 M0 -24.32 L-7.5 -31.92"/><path d="M0 -39.52 L7.5 -47.12 M0 -39.52 L-7.5 -47.12"/><path d="M0 -53.199999999999996 L7.5 -60.8 M0 -53.199999999999996 L-7.5 -60.8"/></g><g transform="translate(200 270) rotate(-26)" stroke="#000" stroke-width="3" stroke-linecap="round" fill="none"><path d="M0 -8 L0 -80.84"/><path d="M0 -30.080000000000002 L8.7 -39.480000000000004 M0 -30.080000000000002 L-8.7 -39.480000000000004"/><path d="M0 -48.88 L8.7 -58.28 M0 -48.88 L-8.7 -58.28"/><path d="M0 -65.8 L8.7 -75.19999999999999 M0 -65.8 L-8.7 -75.19999999999999"/></g><g transform="translate(200 270) rotate(26)" stroke="#000" stroke-width="3" stroke-linecap="round" fill="none"><path d="M0 -8 L0 -80.84"/><path d="M0 -30.080000000000002 L8.7 -39.480000000000004 M0 -30.080000000000002 L-8.7 -39.480000000000004"/><path d="M0 -48.88 L8.7 -58.28 M0 -48.88 L-8.7 -58.28"/><path d="M0 -65.8 L8.7 -75.19999999999999 M0 -65.8 L-8.7 -75.19999999999999"/></g><g transform="translate(200 270) rotate(0)" stroke="#000" stroke-width="3" stroke-linecap="round" fill="none"><path d="M0 -8 L0 -89.44"/><path d="M0 -33.28 L9.6 -43.68000000000001 M0 -33.28 L-9.6 -43.68000000000001"/><path d="M0 -54.08 L9.6 -64.48 M0 -54.08 L-9.6 -64.48"/><path d="M0 -72.8 L9.6 -83.19999999999999 M0 -72.8 L-9.6 -83.19999999999999"/></g></mask><mask id="r5crown-mask" maskUnits="userSpaceOnUse" x="0" y="0" width="400" height="400"><rect width="400" height="400" fill="#fff"/><path d="M200 135 l6 6 l-6 6 l-6 -6Z" fill="#000"/><path d="M154 133 H246" stroke="#000" stroke-width="3"/></mask><mask id="r5coin-mask" maskUnits="userSpaceOnUse" x="0" y="0" width="400" height="400"><rect width="400" height="400" fill="#fff"/><ellipse cx="200" cy="326" rx="23" ry="5.4" fill="none" stroke="#000" stroke-width="2.8"/><ellipse cx="200" cy="316" rx="23" ry="5.4" fill="none" stroke="#000" stroke-width="2.8"/><ellipse cx="200" cy="306" rx="23" ry="5.4" fill="none" stroke="#000" stroke-width="2.8"/></mask></defs></g></g><g transform="translate(330 458) scale(1)"><defs><path id="r5aL0" d="M-239.23 -50.93L-229.99 -73.37Q-228.56 -77.22 -215.91 -77.22L-215.91 -77.22Q-212.72 -77.22 -208.38 -76.78Q-204.03 -76.34 -204.36 -75.68L-204.36 -75.68L-227.24 -29.7L-227.24 -2.86Q-227.24 -0.99 -233.29 -0.22L-233.29 -0.22Q-236.37 0.22 -239.34 0.22Q-242.31 0.22 -245.28 -0.11L-245.28 -0.11Q-251.33 -0.88 -251.33 -2.86L-251.33 -2.86L-251.33 -29.04L-274.98 -75.46Q-275.42 -76.12 -270.47 -76.72Q-265.52 -77.33 -262.11 -77.33L-262.11 -77.33Q-248.58 -77.33 -247.26 -73.37L-247.26 -73.37L-239.23 -50.93Z"/><path id="r5aL1" d="M-195.95 -18.92L-188.36 -18.92L-188.36 -58.08L-196.17 -58.08Q-198.04 -58.08 -198.81 -62.81L-198.81 -62.81Q-199.14 -65.12 -199.14 -67.54Q-199.14 -69.96 -198.81 -72.27L-198.81 -72.27Q-198.04 -77 -196.17 -77L-196.17 -77L-159.21 -77Q-157.34 -77 -156.68 -72.27L-156.68 -72.27Q-156.24 -69.96 -156.24 -67.54Q-156.24 -65.12 -156.68 -62.81L-156.68 -62.81Q-157.34 -58.08 -159.21 -58.08L-159.21 -58.08L-166.58 -58.08L-166.58 -18.92L-158.88 -18.92Q-157.01 -18.92 -156.24 -14.19L-156.24 -14.19Q-155.8 -11.88 -155.8 -9.46Q-155.8 -7.04 -156.24 -4.73L-156.24 -4.73Q-157.01 0 -158.88 0L-158.88 0L-195.95 0Q-197.82 0 -198.48 -4.73L-198.48 -4.73Q-198.92 -7.04 -198.92 -9.46Q-198.92 -11.88 -198.48 -14.19L-198.48 -14.19Q-197.82 -18.92 -195.95 -18.92L-195.95 -18.92Z"/><path id="r5aL2" d="M-121.87 -46.42L-107.68 -46.42Q-105.59 -46.42 -105.59 -38.72L-105.59 -38.72Q-105.59 -36.41 -106.09 -33.27Q-106.58 -30.14 -107.9 -30.14L-107.9 -30.14L-121.87 -30.14L-121.87 -19.14L-101.63 -19.14Q-99.76 -19.14 -99.1 -14.3L-99.1 -14.3Q-98.77 -12.21 -98.77 -9.85Q-98.77 -7.48 -99.43 -3.74Q-100.09 0 -101.63 0L-101.63 0L-139.25 0Q-143.43 0 -143.43 -3.41L-143.43 -3.41L-143.43 -74.14Q-143.43 -77 -140.9 -77L-140.9 -77L-101.52 -77Q-99.21 -77 -99.21 -67.26Q-99.21 -57.53 -101.52 -57.53L-101.52 -57.53L-121.87 -57.53L-121.87 -46.42Z"/><path id="r5aL3" d="M-85.3 -6.49L-85.3 -6.49L-85.3 -74.91Q-85.3 -77.22 -74.14 -77.22Q-62.97 -77.22 -62.97 -74.91L-62.97 -74.91L-62.97 -21.01L-46.03 -21.01Q-44.05 -21.01 -43.28 -15.84L-43.28 -15.84Q-42.95 -13.31 -42.95 -10.67Q-42.95 -8.03 -43.28 -5.28L-43.28 -5.28Q-44.16 0 -46.14 0L-46.14 0L-80.02 0Q-82.44 0 -83.87 -1.98Q-85.3 -3.96 -85.3 -6.49Z"/><path id="r5aL4" d="M-31.35 -5.06L-31.35 -5.06L-31.35 -71.06Q-31.35 -73.81 -29.98 -75.4Q-28.6 -77 -26.4 -77L-26.4 -77L-8.03 -77Q9.46 -77 18.53 -68.2Q27.61 -59.4 27.61 -40.48L27.61 -40.48Q27.61 0 -6.93 0L-6.93 0L-25.74 0Q-31.35 0 -31.35 -5.06ZM-9.13 -56.1L-10.23 -56.1L-10.23 -23.21Q-10.23 -20.9 -9.9 -20.3Q-9.57 -19.69 -7.92 -19.69L-7.92 -19.69Q-1.87 -19.69 1.26 -24.2Q4.4 -28.71 4.4 -39.22Q4.4 -49.72 1.15 -52.91Q-2.09 -56.1 -9.13 -56.1L-9.13 -56.1Z"/><path id="r5aL5" d="M121.1 -57.09L121.1 -57.09Q121.1 -45.65 111.2 -39.71L111.2 -39.71Q116.59 -37.73 120.22 -32.89Q123.85 -28.05 123.85 -19.19Q123.85 -10.34 117.3 -5.17Q110.76 0 98.55 0L98.55 0L72.59 0Q70.72 0 69.51 -1.26Q68.3 -2.53 68.3 -4.62L68.3 -4.62L68.3 -75.02Q68.3 -76.23 68.68 -76.61Q69.07 -77 70.28 -77L70.28 -77L95.36 -77Q121.1 -77 121.1 -57.09ZM91.73 -59.18L89.42 -59.18L89.42 -44.77L89.97 -44.77Q100.53 -44.77 100.53 -51.81L100.53 -51.81Q100.53 -55.66 98.49 -57.42Q96.46 -59.18 91.73 -59.18L91.73 -59.18ZM91.73 -31.79L89.42 -31.79L89.42 -17.49L91.4 -17.49Q96.13 -17.49 98.33 -19.25Q100.53 -21.01 100.53 -24.86Q100.53 -28.71 98.49 -30.25Q96.46 -31.79 91.73 -31.79L91.73 -31.79Z"/><path id="r5aL6" d="M173.4 -25.08L173.4 -74.8Q173.4 -77 185.33 -77Q197.27 -77 197.27 -74.8L197.27 -74.8L197.27 -24.31Q197.27 -13.09 189.24 -5.99Q181.21 1.1 167.07 1.1Q152.94 1.1 144.08 -6.21Q135.23 -13.53 135.23 -25.96L135.23 -25.96L135.23 -74.69Q135.23 -76.89 147.16 -76.89Q159.1 -76.89 159.1 -74.69L159.1 -74.69L159.1 -25.08Q159.1 -22.88 161.41 -21.56L161.41 -21.56Q163.83 -20.24 166.47 -20.24Q169.11 -20.24 171.25 -21.45Q173.4 -22.66 173.4 -25.08L173.4 -25.08Z"/><path id="r5aL7" d="M211.51 -5.06L211.51 -5.06L211.51 -71.06Q211.51 -73.81 212.88 -75.4Q214.26 -77 216.46 -77L216.46 -77L234.83 -77Q252.32 -77 261.39 -68.2Q270.47 -59.4 270.47 -40.48L270.47 -40.48Q270.47 0 235.93 0L235.93 0L217.12 0Q211.51 0 211.51 -5.06ZM233.73 -56.1L232.63 -56.1L232.63 -23.21Q232.63 -20.9 232.96 -20.3Q233.29 -19.69 234.94 -19.69L234.94 -19.69Q240.99 -19.69 244.12 -24.2Q247.26 -28.71 247.26 -39.22Q247.26 -49.72 244.01 -52.91Q240.77 -56.1 233.73 -56.1L233.73 -56.1Z"/><clipPath id="r5atops"><rect x="-547.54" y="-81.33" width="1095.08" height="36.077799999999996"/></clipPath><mask id="r5agap" maskUnits="userSpaceOnUse" x="-547.54" y="-107.33" width="1095.08" height="158.43"><rect x="-547.54" y="-107.33" width="1095.08" height="158.43" fill="#fff"/><use href="#r5aL0" fill="#000" stroke="#000" stroke-width="7" stroke-linejoin="round"/><use href="#r5aL1" fill="#000" stroke="#000" stroke-width="7" stroke-linejoin="round"/><use href="#r5aL2" fill="#000" stroke="#000" stroke-width="7" stroke-linejoin="round"/><use href="#r5aL3" fill="#000" stroke="#000" stroke-width="7" stroke-linejoin="round"/><use href="#r5aL4" fill="#000" stroke="#000" stroke-width="7" stroke-linejoin="round"/><use href="#r5aL5" fill="#000" stroke="#000" stroke-width="7" stroke-linejoin="round"/><use href="#r5aL6" fill="#000" stroke="#000" stroke-width="7" stroke-linejoin="round"/><use href="#r5aL7" fill="#000" stroke="#000" stroke-width="7" stroke-linejoin="round"/></mask></defs><g><g mask="url(#r5agap)"><g><use href="#r5aL0" transform="translate(0 9)" fill="#1b1636" stroke="#1b1636" stroke-width="9" stroke-linejoin="round"/><use href="#r5aL0" transform="translate(0 4.5)" fill="#1b1636" stroke="#1b1636" stroke-width="9" stroke-linejoin="round"/></g><g><use href="#r5aL1" transform="translate(0 9)" fill="#1b1636" stroke="#1b1636" stroke-width="9" stroke-linejoin="round"/><use href="#r5aL1" transform="translate(0 4.5)" fill="#1b1636" stroke="#1b1636" stroke-width="9" stroke-linejoin="round"/></g><g><use href="#r5aL2" transform="translate(0 9)" fill="#1b1636" stroke="#1b1636" stroke-width="9" stroke-linejoin="round"/><use href="#r5aL2" transform="translate(0 4.5)" fill="#1b1636" stroke="#1b1636" stroke-width="9" stroke-linejoin="round"/></g><g><use href="#r5aL3" transform="translate(0 9)" fill="#1b1636" stroke="#1b1636" stroke-width="9" stroke-linejoin="round"/><use href="#r5aL3" transform="translate(0 4.5)" fill="#1b1636" stroke="#1b1636" stroke-width="9" stroke-linejoin="round"/></g><g><use href="#r5aL4" transform="translate(0 9)" fill="#1b1636" stroke="#1b1636" stroke-width="9" stroke-linejoin="round"/><use href="#r5aL4" transform="translate(0 4.5)" fill="#1b1636" stroke="#1b1636" stroke-width="9" stroke-linejoin="round"/></g><g><use href="#r5aL5" transform="translate(0 9)" fill="#1b1636" stroke="#1b1636" stroke-width="9" stroke-linejoin="round"/><use href="#r5aL5" transform="translate(0 4.5)" fill="#1b1636" stroke="#1b1636" stroke-width="9" stroke-linejoin="round"/></g><g><use href="#r5aL6" transform="translate(0 9)" fill="#1b1636" stroke="#1b1636" stroke-width="9" stroke-linejoin="round"/><use href="#r5aL6" transform="translate(0 4.5)" fill="#1b1636" stroke="#1b1636" stroke-width="9" stroke-linejoin="round"/></g><g><use href="#r5aL7" transform="translate(0 9)" fill="#1b1636" stroke="#1b1636" stroke-width="9" stroke-linejoin="round"/><use href="#r5aL7" transform="translate(0 4.5)" fill="#1b1636" stroke="#1b1636" stroke-width="9" stroke-linejoin="round"/></g></g><use href="#r5aL0" fill="#1b1636"/><use href="#r5aL1" fill="#1b1636"/><use href="#r5aL2" fill="#1b1636"/><use href="#r5aL3" fill="#1b1636"/><use href="#r5aL4" fill="#1b1636"/><use href="#r5aL5" fill="#1b1636"/><use href="#r5aL6" fill="#1b1636"/><use href="#r5aL7" fill="#1b1636"/></g></g><g transform="translate(330 580) scale(1)"><defs><path id="r5bL0" d="M-246.75 -63.3L-227.4 -63.3Q-224.55 -63.3 -224.55 -52.8L-224.55 -52.8Q-224.55 -49.65 -225.23 -45.37Q-225.9 -41.1 -227.7 -41.1L-227.7 -41.1L-246.75 -41.1L-246.75 -26.1L-219.15 -26.1Q-216.6 -26.1 -215.7 -19.5L-215.7 -19.5Q-215.25 -16.65 -215.25 -13.42Q-215.25 -10.2 -216.15 -5.1Q-217.05 0 -219.15 0L-219.15 0L-270.45 0Q-276.15 0 -276.15 -4.65L-276.15 -4.65L-276.15 -101.1Q-276.15 -105 -272.7 -105L-272.7 -105L-219 -105Q-215.85 -105 -215.85 -91.72Q-215.85 -78.45 -219 -78.45L-219 -78.45L-246.75 -78.45L-246.75 -63.3Z"/><path id="r5bL1" d="M-88.2 0.15L-88.2 0.15Q-101.55 0.15 -101.55 -2.85L-101.55 -2.85L-104.7 -63L-123 -2.1Q-123.6 -0.3 -133.2 -0.3Q-142.8 -0.3 -143.1 -1.95L-143.1 -1.95L-162 -63.6L-164.1 -3.75Q-164.25 -1.5 -169.8 -0.67Q-175.35 0.15 -179.03 0.15Q-182.7 0.15 -186.15 -0.3L-186.15 -0.3Q-193.35 -1.35 -193.2 -4.05L-193.2 -4.05L-189.75 -101.55Q-189.75 -105.15 -171.45 -105.15L-171.45 -105.15Q-166.05 -105.15 -158.25 -104.32Q-150.45 -103.5 -149.55 -101.1L-149.55 -101.1L-132.75 -53.85L-118.05 -101.25Q-116.7 -105.15 -97.35 -105.15L-97.35 -105.15Q-91.8 -105.15 -84.08 -104.32Q-76.35 -103.5 -76.35 -101.4L-76.35 -101.4L-72 -3Q-72 -1.35 -77.85 -0.6Q-83.7 0.15 -88.2 0.15Z"/><path id="r5bL2" d="M-35.1 0.3L-35.1 0.3Q-48.75 0.3 -48.75 -2.7L-48.75 -2.7L-48.75 -99.9Q-48.75 -105 -44.1 -105L-44.1 -105L-17.7 -105Q4.5 -105 14.32 -95.85Q24.15 -86.7 24.15 -69.3L24.15 -69.3Q24.15 -54.9 14.85 -42.9L14.85 -42.9Q10.2 -36.9 1.2 -33.3Q-7.8 -29.7 -19.8 -29.7L-19.8 -29.7L-19.8 -2.85Q-19.8 -1.05 -25.43 -0.37Q-31.05 0.3 -35.1 0.3ZM-16.65 -78.9L-19.8 -78.9L-19.8 -55.2L-17.85 -55.2Q-12.6 -55.2 -9 -58.5Q-5.4 -61.8 -5.4 -67.8Q-5.4 -73.8 -7.88 -76.35Q-10.35 -78.9 -16.65 -78.9L-16.65 -78.9Z"/><path id="r5bL3" d="M45.9 -25.8L56.25 -25.8L56.25 -79.2L45.6 -79.2Q43.05 -79.2 42 -85.65L42 -85.65Q41.55 -88.8 41.55 -92.1Q41.55 -95.4 42 -98.55L42 -98.55Q43.05 -105 45.6 -105L45.6 -105L96 -105Q98.55 -105 99.45 -98.55L99.45 -98.55Q100.05 -95.4 100.05 -92.1Q100.05 -88.8 99.45 -85.65L99.45 -85.65Q98.55 -79.2 96 -79.2L96 -79.2L85.95 -79.2L85.95 -25.8L96.45 -25.8Q99 -25.8 100.05 -19.35L100.05 -19.35Q100.65 -16.2 100.65 -12.9Q100.65 -9.6 100.05 -6.45L100.05 -6.45Q99 0 96.45 0L96.45 0L45.9 0Q43.35 0 42.45 -6.45L42.45 -6.45Q41.85 -9.6 41.85 -12.9Q41.85 -16.2 42.45 -19.35L42.45 -19.35Q43.35 -25.8 45.9 -25.8L45.9 -25.8Z"/><path id="r5bL4" d="M148.35 -36.15L148.35 -2.1Q148.35 0.3 134.1 0.3L134.1 0.3Q119.7 0.3 119.7 -1.95L119.7 -1.95L119.7 -99.75Q119.7 -105 125.25 -105L125.25 -105L153.9 -105Q193.35 -105 193.35 -74.25L193.35 -74.25Q193.35 -64.95 189.75 -57.37Q186.15 -49.8 179.55 -45.3L179.55 -45.3L198.45 -13.8Q197.25 -10.2 190.65 -5.55L190.65 -5.55Q181.65 0.9 175.8 0.9Q169.95 0.9 167.1 -3.3L167.1 -3.3L153 -36.15L148.35 -36.15ZM151.5 -78.45L148.35 -78.45L148.35 -55.95L149.1 -55.95Q163.35 -55.95 163.35 -67.8L163.35 -67.8Q163.35 -73.2 160.57 -75.82Q157.8 -78.45 151.5 -78.45L151.5 -78.45Z"/><path id="r5bL5" d="M246.6 -63.3L265.95 -63.3Q268.8 -63.3 268.8 -52.8L268.8 -52.8Q268.8 -49.65 268.12 -45.37Q267.45 -41.1 265.65 -41.1L265.65 -41.1L246.6 -41.1L246.6 -26.1L274.2 -26.1Q276.75 -26.1 277.65 -19.5L277.65 -19.5Q278.1 -16.65 278.1 -13.42Q278.1 -10.2 277.2 -5.1Q276.3 0 274.2 0L274.2 0L222.9 0Q217.2 0 217.2 -4.65L217.2 -4.65L217.2 -101.1Q217.2 -105 220.65 -105L220.65 -105L274.35 -105Q277.5 -105 277.5 -91.72Q277.5 -78.45 274.35 -78.45L274.35 -78.45L246.6 -78.45L246.6 -63.3Z"/><clipPath id="r5btops"><rect x="-567.3" y="-109.15" width="1134.6" height="48.78300000000001"/></clipPath><mask id="r5bgap" maskUnits="userSpaceOnUse" x="-567.3" y="-135.15" width="1134.6" height="186.05"><rect x="-567.3" y="-135.15" width="1134.6" height="186.05" fill="#fff"/><use href="#r5bL0" fill="#000" stroke="#000" stroke-width="7" stroke-linejoin="round"/><use href="#r5bL1" fill="#000" stroke="#000" stroke-width="7" stroke-linejoin="round"/><use href="#r5bL2" fill="#000" stroke="#000" stroke-width="7" stroke-linejoin="round"/><use href="#r5bL3" fill="#000" stroke="#000" stroke-width="7" stroke-linejoin="round"/><use href="#r5bL4" fill="#000" stroke="#000" stroke-width="7" stroke-linejoin="round"/><use href="#r5bL5" fill="#000" stroke="#000" stroke-width="7" stroke-linejoin="round"/></mask></defs><g><g mask="url(#r5bgap)"><g><use href="#r5bL0" transform="translate(0 9)" fill="#1b1636" stroke="#1b1636" stroke-width="9" stroke-linejoin="round"/><use href="#r5bL0" transform="translate(0 4.5)" fill="#1b1636" stroke="#1b1636" stroke-width="9" stroke-linejoin="round"/></g><g><use href="#r5bL1" transform="translate(0 9)" fill="#1b1636" stroke="#1b1636" stroke-width="9" stroke-linejoin="round"/><use href="#r5bL1" transform="translate(0 4.5)" fill="#1b1636" stroke="#1b1636" stroke-width="9" stroke-linejoin="round"/></g><g><use href="#r5bL2" transform="translate(0 9)" fill="#1b1636" stroke="#1b1636" stroke-width="9" stroke-linejoin="round"/><use href="#r5bL2" transform="translate(0 4.5)" fill="#1b1636" stroke="#1b1636" stroke-width="9" stroke-linejoin="round"/></g><g><use href="#r5bL3" transform="translate(0 9)" fill="#1b1636" stroke="#1b1636" stroke-width="9" stroke-linejoin="round"/><use href="#r5bL3" transform="translate(0 4.5)" fill="#1b1636" stroke="#1b1636" stroke-width="9" stroke-linejoin="round"/></g><g><use href="#r5bL4" transform="translate(0 9)" fill="#1b1636" stroke="#1b1636" stroke-width="9" stroke-linejoin="round"/><use href="#r5bL4" transform="translate(0 4.5)" fill="#1b1636" stroke="#1b1636" stroke-width="9" stroke-linejoin="round"/></g><g><use href="#r5bL5" transform="translate(0 9)" fill="#1b1636" stroke="#1b1636" stroke-width="9" stroke-linejoin="round"/><use href="#r5bL5" transform="translate(0 4.5)" fill="#1b1636" stroke="#1b1636" stroke-width="9" stroke-linejoin="round"/></g></g><use href="#r5bL0" fill="#1b1636"/><use href="#r5bL1" fill="#1b1636"/><use href="#r5bL2" fill="#1b1636"/><use href="#r5bL3" fill="#1b1636"/><use href="#r5bL4" fill="#1b1636"/><use href="#r5bL5" fill="#1b1636"/></g></g></svg>